<svg width="68" height="64" viewBox="0 0 68 64" fill="none" xmlns="http://www.w3.org/2000/svg">
<path d="M27.3327 26.9997C34.6993 26.9997 40.666 21.033 40.666 13.6663C40.666 6.29967 34.6993 0.333008 27.3327 0.333008C19.966 0.333008 13.9993 6.29967 13.9993 13.6663C13.9993 21.033 19.966 26.9997 27.3327 26.9997ZM27.3327 6.99967C29.1008 6.99967 30.7965 7.70205 32.0467 8.9523C33.297 10.2025 33.9993 11.8982 33.9993 13.6663C33.9993 15.4345 33.297 17.1301 32.0467 18.3804C30.7965 19.6306 29.1008 20.333 27.3327 20.333C23.6327 20.333 20.666 17.3663 20.666 13.6663C20.666 9.96634 23.666 6.99967 27.3327 6.99967ZM33.9993 53.6663H0.666016V43.6663C0.666016 34.7663 18.4327 30.333 27.3327 30.333C30.666 30.333 35.266 30.9663 39.6993 32.1997C38.6993 34.0663 38.0993 36.133 38.0327 38.2997C34.766 37.333 31.0327 36.6663 27.3327 36.6663C17.4327 36.6663 6.99935 41.533 6.99935 43.6663V47.333H33.9993V53.6663ZM63.3327 43.6663V38.6663C63.3327 33.9997 58.666 30.333 53.9993 30.333C49.3327 30.333 44.666 33.9997 44.666 38.6663V43.6663C42.666 43.6663 40.666 45.6663 40.666 47.6663V59.333C40.666 61.6663 42.666 63.6663 44.666 63.6663H62.9994C65.3327 63.6663 67.3327 61.6663 67.3327 59.6663V47.9997C67.3327 45.6663 65.3327 43.6663 63.3327 43.6663ZM58.9993 43.6663H48.9993V38.6663C48.9993 35.9997 51.3327 34.333 53.9993 34.333C56.666 34.333 58.9993 35.9997 58.9993 38.6663V43.6663Z" fill="black"/>
</svg>
