<svg width="57" height="81" viewBox="0 0 57 81" fill="none" xmlns="http://www.w3.org/2000/svg">
<path d="M56.7754 6.97275L28.477 0L0.224609 6.97275V29.2883H15.2247C15.093 30.3572 15.093 31.439 15.2247 32.508H0.224609V42.9907C0.224609 67.0511 28.4803 81 28.4803 81C28.4803 81 56.7294 67.0511 56.7294 43.0042V32.5181H41.7687C41.9074 31.4496 41.9074 30.3669 41.7687 29.2984H56.7722L56.7754 6.97275ZM28.5 41.3843H28.4803C25.767 41.3816 23.1657 40.2742 21.2485 38.3056C19.3313 36.337 18.2551 33.6683 18.2564 30.8863C18.2577 28.1043 19.3364 25.4367 21.2555 23.47C23.1746 21.5033 25.7768 20.3985 28.4901 20.3985C31.2035 20.3985 33.8057 21.5033 35.7248 23.47C37.6439 25.4367 38.7226 28.1043 38.7239 30.8863C38.7253 33.6683 37.649 36.337 35.7318 38.3056C33.8146 40.2742 31.2133 41.3816 28.5 41.3843ZM28.4803 25.9301C27.8848 25.9269 27.3057 26.1296 26.8366 26.5055C26.3674 26.8814 26.0356 27.4086 25.8947 28.0018C25.7539 28.595 25.8123 29.2196 26.0605 29.7745C26.3086 30.3295 26.7321 30.7824 27.2624 31.0601V31.7621L28.0458 32.562V33.0986L28.5691 33.6353V34.1719L28.1083 34.6444L28.6021 35.4746V36.0112L28.0754 36.6491L28.8094 37.3984L29.6192 36.5681V31.1108C30.1713 30.8517 30.6198 30.4058 30.8894 29.8479C31.1589 29.29 31.2332 28.654 31.0996 28.0467C30.9661 27.4393 30.6329 26.8975 30.156 26.5121C29.6791 26.1268 29.0874 25.9213 28.4803 25.9301ZM28.4803 28.7516C28.2855 28.7523 28.0949 28.6937 27.9326 28.5832C27.7703 28.4727 27.6436 28.3154 27.5686 28.131C27.4936 27.9467 27.4737 27.7437 27.5113 27.5477C27.5489 27.3517 27.6424 27.1716 27.7799 27.0301C27.9174 26.8887 28.0928 26.7922 28.2838 26.753C28.4748 26.7138 28.6728 26.7336 28.8529 26.8099C29.0329 26.8861 29.1868 27.0155 29.2951 27.1815C29.4034 27.3475 29.4612 27.5428 29.4612 27.7425C29.4616 27.875 29.4366 28.0063 29.3875 28.1289C29.3385 28.2515 29.2663 28.363 29.1753 28.457C29.0842 28.5511 28.9759 28.6258 28.8567 28.6769C28.7374 28.728 28.6095 28.7546 28.4803 28.755V28.7516Z" fill="black"/>
</svg>
