<svg width="57" height="71" viewBox="0 0 57 71" fill="none" xmlns="http://www.w3.org/2000/svg">
<path d="M23.3132 47.6045H33.6882V38.9587H42.334V28.5837H33.6882V19.9378H23.3132V28.5837H14.6673V38.9587H23.3132V47.6045ZM28.5007 70.0837C20.4888 68.0663 13.8754 63.469 8.66019 56.2918C3.44272 49.1169 0.833984 41.1489 0.833984 32.3878V11.292L28.5007 0.916992L56.1673 11.292V32.3878C56.1673 41.1489 53.5597 49.1169 48.3446 56.2918C43.1271 63.469 36.5125 68.0663 28.5007 70.0837ZM28.5007 62.8212C34.4951 60.9191 39.452 57.1149 43.3715 51.4087C47.2909 45.7024 49.2507 39.3621 49.2507 32.3878V16.0472L28.5007 8.26595L7.75065 16.0472V32.3878C7.75065 39.3621 9.71037 45.7024 13.6298 51.4087C17.5493 57.1149 22.5062 60.9191 28.5007 62.8212Z" fill="black"/>
</svg>
