<svg width="92" height="92" viewBox="0 0 92 92" fill="none" xmlns="http://www.w3.org/2000/svg">
<path d="M77.625 26.5938H46.8984L36.8719 16.5672C35.9217 15.6335 34.6461 15.1052 33.3141 15.0938H14.375C13.0406 15.0938 11.7609 15.6238 10.8174 16.5674C9.87383 17.5109 9.34375 18.7906 9.34375 20.125V72.0906C9.34375 72.723 9.46831 73.3492 9.71032 73.9335C9.95233 74.5177 10.307 75.0486 10.7542 75.4958C11.2014 75.943 11.7323 76.2977 12.3165 76.5397C12.9008 76.7817 13.527 76.9062 14.1594 76.9062H77.9484C79.197 76.9062 80.3945 76.4103 81.2774 75.5274C82.1603 74.6445 82.6563 73.447 82.6562 72.1984V31.625C82.6562 30.2906 82.1262 29.0109 81.1826 28.0674C80.2391 27.1238 78.9594 26.5937 77.625 26.5938ZM14.375 19.4062H33.3141C33.5036 19.409 33.6845 19.4865 33.8172 19.6219L40.7891 26.5938H13.6562V20.125C13.6562 19.9344 13.732 19.7516 13.8668 19.6168C14.0016 19.482 14.1844 19.4062 14.375 19.4062ZM78.3438 72.1984C78.3438 72.3033 78.3021 72.4038 78.228 72.478C78.1538 72.5521 78.0533 72.5938 77.9484 72.5938H14.1594C14.0259 72.5937 13.898 72.5407 13.8036 72.4464C13.7093 72.352 13.6562 72.2241 13.6562 72.0906V30.9062H77.625C77.8156 30.9062 77.9984 30.982 78.1332 31.1168C78.268 31.2516 78.3438 31.4344 78.3438 31.625V72.1984Z" fill="white"/>
<g clip-path="url(#clip0_1858_23645)">
<path fill-rule="evenodd" clip-rule="evenodd" d="M51.5996 57.141C51.5996 51.501 56.1719 46.9287 61.8118 46.9287C67.4518 46.9287 72.0241 51.501 72.0241 57.141C72.0241 62.7809 67.4518 67.3532 61.8118 67.3532C56.1719 67.3532 51.5996 62.7809 51.5996 57.141ZM59.0267 57.141C59.0267 56.9831 59.036 56.829 59.0555 56.6768H61.8118C62.0581 56.6768 62.2942 56.5789 62.4683 56.4048C62.6424 56.2307 62.7402 55.9946 62.7402 55.7484C62.7402 55.5021 62.6424 55.266 62.4683 55.0919C62.2942 54.9178 62.0581 54.82 61.8118 54.82H59.8409C60.1885 54.385 60.6297 54.034 61.1317 53.7929C61.6336 53.5518 62.1834 53.4269 62.7402 53.4274C63.5776 53.4274 64.3473 53.7031 64.9684 54.1701C65.1653 54.3179 65.4129 54.3813 65.6567 54.3465C65.9004 54.3116 66.1204 54.1814 66.2681 53.9844C66.4158 53.7875 66.4793 53.5399 66.4444 53.2961C66.4096 53.0524 66.2794 52.8324 66.0824 52.6847C65.4169 52.1853 64.6479 51.8414 63.832 51.6781C63.0161 51.5148 62.174 51.5364 61.3675 51.7412C60.561 51.946 59.8107 52.3288 59.1715 52.8616C58.5324 53.3944 58.0207 54.0636 57.674 54.82H57.1699C56.9237 54.82 56.6876 54.9178 56.5135 55.0919C56.3393 55.266 56.2415 55.5021 56.2415 55.7484C56.2415 55.9946 56.3393 56.2307 56.5135 56.4048C56.6876 56.5789 56.9237 56.6768 57.1699 56.6768H57.1885C57.163 56.9857 57.163 57.2962 57.1885 57.6051H57.1699C56.9237 57.6051 56.6876 57.703 56.5135 57.8771C56.3393 58.0512 56.2415 58.2873 56.2415 58.5335C56.2415 58.7798 56.3393 59.0159 56.5135 59.19C56.6876 59.3641 56.9237 59.4619 57.1699 59.4619H57.675C58.0216 60.2183 58.5333 60.8875 59.1724 61.4203C59.8116 61.9531 60.5619 62.3359 61.3684 62.5407C62.1749 62.7455 63.017 62.7671 63.8329 62.6038C64.6488 62.4405 65.4178 62.0966 66.0833 61.5972C66.2803 61.4493 66.4105 61.2293 66.4452 60.9855C66.48 60.7416 66.4164 60.494 66.2686 60.297C66.1207 60.1 65.9007 59.9698 65.6568 59.9351C65.413 59.9004 65.1653 59.9639 64.9684 60.1118C64.3473 60.5788 63.5776 60.8545 62.7402 60.8545C62.1834 60.8551 61.6336 60.7302 61.1316 60.4891C60.6297 60.248 60.1885 59.8969 59.8409 59.4619H61.8118C62.0581 59.4619 62.2942 59.3641 62.4683 59.19C62.6424 59.0159 62.7402 58.7798 62.7402 58.5335C62.7402 58.2873 62.6424 58.0512 62.4683 57.8771C62.2942 57.703 62.0581 57.6051 61.8118 57.6051H59.0555C59.0363 57.4512 59.0267 57.2961 59.0267 57.141Z" fill="white"/>
</g>
<defs>
<clipPath id="clip0_1858_23645">
<rect width="22.2812" height="22.2812" fill="white" transform="translate(50.6719 46)"/>
</clipPath>
</defs>
</svg>
