<svg width="70" height="78" viewBox="0 0 70 78" fill="none" xmlns="http://www.w3.org/2000/svg">
<path d="M69.4118 66.1787L67.9245 60.306C67.8293 59.9316 67.6593 59.5803 67.4248 59.2733C67.1903 58.9663 66.896 58.71 66.5598 58.5197C66.2219 58.3264 65.8489 58.2025 65.4625 58.1551C65.0762 58.1077 64.6842 58.1378 64.3097 58.2437L46.8603 63.1657L35 58.167L50.0075 54.3222C51.032 53.4082 51.7741 52.2205 52.1465 50.899L50.9697 46.667L19.6667 50.5003H0.5V73.5003H19.6667L36.7442 77.1957C37.6726 77.2801 38.6076 77.2582 39.531 77.1305L67.361 69.6402C68.091 69.4447 68.7156 68.9714 69.1013 68.3215C69.2918 68.0017 69.4172 67.6475 69.4705 67.2791C69.5238 66.9107 69.5038 66.5393 69.4118 66.1787ZM12 69.667H4.33333V54.3337H12V69.667ZM38.5343 73.4313C38.3616 73.4763 38.1839 73.4995 38.0053 73.5003C37.8572 73.5009 37.7094 73.4855 37.5645 73.4543L19.6667 69.5252V54.4103L47.7612 50.9297L27.3333 58.167L45.4305 66.723L46.6457 67.2098L47.903 66.8533L64.4477 62.1882L65.4597 66.1825L38.5343 73.4313ZM23.5 0.666992V42.8337L54.8567 21.7503L23.5 0.666992ZM31.1667 15.0803L41.1333 21.7503L31.1667 28.4587V15.0803Z" fill="white"/>
</svg>
