<svg width="72" height="78" viewBox="0 0 72 78" fill="none" xmlns="http://www.w3.org/2000/svg">
<path d="M36.0009 0.773438C24.2393 0.773438 14.6728 10.3399 14.6728 22.1016C14.6728 33.8632 24.2393 43.4297 36.0009 43.4297C47.7626 43.4297 57.3291 33.8632 57.3291 22.1016C57.3291 10.3399 47.7626 0.773438 36.0009 0.773438ZM34.6343 5.88021L32.7026 11.6628L41.2577 10.7665L40.4068 7.90245L42.8061 8.56673V11.7441L46.5538 11.9886L45.8207 9.13718L47.7906 7.99629C51.8182 11.3642 54.3759 16.4278 54.3759 22.1016C54.3759 24.8362 53.7812 27.4288 52.7148 29.7587L48.4279 30.4842V35.6485C47.6101 36.3989 46.726 37.0738 45.7866 37.6649L43.9465 34.8023L40.3614 35.7801L41.3687 39.6825C39.6284 40.2105 37.8196 40.4781 36.0009 40.4766C30.9129 40.4766 26.3152 38.42 22.9913 35.091L26.266 34.6395L28.466 30.3211L21.4586 26.8177L26.4289 22.5806L22.1108 18.9959L17.6986 20.4664C18.2092 14.6507 21.4151 9.62133 26.0648 6.63293L26.9993 14.107L34.6343 5.88021ZM41.0131 16.4158L35.0789 20.2181L40.2643 24.8271L44.0093 23.7325L43.6635 28.2263L50.5196 26.4979L47.9268 20.6216L43.7788 20.6791L47.4661 17.5104L41.0132 16.4158H41.0131ZM34.8487 23.0411L31.6799 24.4237L33.9267 26.0945L34.8487 23.0411ZM27.4065 23.5586L25.2068 26.1656L31.3012 30.4489L27.4065 23.5586ZM37.2109 24.9999L34.9641 29.206L40.3798 32.8931L38.4783 30.1851L40.8405 27.3621L37.2109 24.9999ZM3.87258 29.4944C2.42588 29.4719 0.945217 31.3143 0.936685 36.0375C0.923888 43.2814 0.222029 45.3261 3.57432 53.5185C6.03247 59.5262 7.1348 64.1437 15.0009 67.875C15.9328 71.1599 15.5609 71.9323 14.9288 74.7394C14.3388 77.3601 20.4122 77.8418 24.8601 75.634C29.6329 73.0307 29.2324 65.8629 28.3797 61.0023C27.3882 55.3496 24.2683 54.1748 21.5641 51.7603C18.7562 47.7449 18.1027 40.4707 13.5487 37.5362C12.5976 36.9235 7.74577 36.3013 14.412 52.9486C5.62297 50.7718 7.22389 40.6811 6.58831 33.2102C6.39898 30.9854 5.14899 29.5139 3.87258 29.4942V29.4944ZM68.1293 29.4944C66.8529 29.5141 65.6029 30.9854 65.4136 33.2104C64.778 40.6811 66.3789 50.7718 57.5899 52.9486C64.2563 36.3012 59.4043 36.9235 58.4532 37.5362C53.8992 40.4707 53.2459 47.7449 50.4378 51.7605C47.7337 54.1748 44.6136 55.3496 43.6221 61.0023C42.7695 65.8629 42.369 73.0307 47.1418 75.634C51.5897 77.8416 57.6631 77.3601 57.073 74.7394C56.441 71.9323 56.0691 71.1599 57.0009 67.875C64.8671 64.1437 65.9694 59.5262 68.4276 53.5185C71.7799 45.3261 71.078 43.2814 71.0652 36.0377C71.0567 31.3143 69.576 29.4719 68.1293 29.4944Z" fill="white"/>
</svg>
